# File created by Blade
# Date/Time:  Wed Jan 21 19:14:05 2015
#---------------------------------------------------------
:version 1.10
:name HOM
:units
  mass 1.0
  length 1.000000
  angle deg
:documentation
     Acclaim Skeleton File
:root
   axis xyz
   order TX TY TZ RX RY RZ
   position 0.000000 0.000000 0.000000
   orientation 0 0 0
:bonedata
   begin
      id 1
      name RightUpLeg_dum
      direction -1.000000 0.000000 0.000000
      length 3.693983
      axis 0.0 0.0 0.0 xyz
   end
   begin
      id 2
      name LeftUpLeg_dum
      direction 1.000000 0.000000 0.000000
      length 3.693983
      axis 0.0 0.0 0.0 xyz
   end
   begin
      id 3
      name Spine_dum
      direction 0.000000 1.000000 0.000000
      length 2.392956
      axis 0.0 0.0 0.0 xyz
   end
   begin
      id 4
      name RightUpLeg
      direction 0.000000 -1.000000 0.000000
      length 15.795667
      axis 0.0 0.0 0.0 xyz
      dof rx ry rz
   end
   begin
      id 5
      name RightLeg
      direction 0.000000 -1.000000 0.000000
      length 14.766989
      axis 0.0 0.0 0.0 xyz
      dof rx ry rz
   end
   begin
      id 6
      name RightFoot
      direction 0.000000 -0.258819 0.965926
      length 4.962790
      axis 15.0 0.0 0.0 xyz
      dof rx ry rz
   end
   begin
      id 7
      name RightToeBase
      direction 0.000000 0.000000 1.000000
      length 2.952750
      axis 0.0 0.0 0.0 xyz
      dof rx ry rz
   end
   begin
      id 8
      name LeftUpLeg
      direction 0.000000 -1.000000 0.000000
      length 15.795667
      axis 0.0 0.0 0.0 xyz
      dof rx ry rz
   end
   begin
      id 9
      name LeftLeg
      direction 0.000000 -1.000000 0.000000
      length 14.766989
      axis 0.0 0.0 0.0 xyz
      dof rx ry rz
   end
   begin
      id 10
      name LeftFoot
      direction 0.000000 -0.258819 0.965926
      length 4.962790
      axis 15.0 0.0 0.0 xyz
      dof rx ry rz
   end
   begin
      id 11
      name LeftToeBase
      direction 0.000000 0.000000 1.000000
      length 2.952750
      axis 0.0 0.0 0.0 xyz
      dof rx ry rz
   end
   begin
      id 12
      name Spine
      direction 0.000000 1.000000 0.000000
      length 0.000000
      axis 0.0 0.0 0.0 xyz
      dof rx ry rz
   end
   begin
      id 13
      name Spine_dum1
      direction 0.000000 1.000000 0.000000
      length 13.207411
      axis 0.0 0.0 0.0 xyz
   end
   begin
      id 14
      name Spine_dum2
      direction 0.000000 1.000000 0.000000
      length 13.207411
      axis 0.0 0.0 0.0 xyz
   end
   begin
      id 15
      name Spine_dum3
      direction 0.000000 1.000000 0.000000
      length 19.250100
      axis 0.0 0.0 0.0 xyz
   end
   begin
      id 16
      name RightShoulder
      direction -1.000000 0.000000 0.000000
      length 8.140465
      axis 0.0 0.0 90.0 xyz
      dof rx ry rz
   end
   begin
      id 17
      name RightArm
      direction -1.000000 0.000000 0.000000
      length 10.649840
      axis 0.0 0.0 90.0 xyz
      dof rx ry rz
   end
   begin
      id 18
      name RightForeArm
      direction -1.000000 0.000000 0.000000
      length 8.304624
      axis 0.0 0.0 90.0 xyz
      dof ry rz rx
   end
   begin
      id 19
      name RightHand
      direction -1.000000 0.000000 0.000000
      length 0.000000
      axis 0.0 0.0 90.0 xyz
      dof rx ry rz
   end
   begin
      id 20
      name RightHand_dum1
      direction -1.000000 0.000000 0.000000
      length 3.937000
      axis 0.0 0.0 90.0 xyz
   end
   begin
      id 21
      name RightHand_dum2
      direction 0.000000 0.000000 0.000000
      length 0.000000
      axis 0.0 0.0 90.0 xyz
   end
   begin
      id 22
      name RightHandThumb1
      direction 0.000000 0.000000 1.000000
      length 3.937000
      axis 0.0 0.0 90.0 xyz
      dof rx rz ry
   end
   begin
      id 23
      name LeftShoulder
      direction 1.000000 0.000000 0.000000
      length 8.140465
      axis 0.0 0.0 -90.0 xyz
      dof rx ry rz
   end
   begin
      id 24
      name LeftArm
      direction 1.000000 0.000000 0.000000
      length 10.649840
      axis 0.0 0.0 -90.0 xyz
      dof rx ry rz
   end
   begin
      id 25
      name LeftForeArm
      direction 1.000000 0.000000 0.000000
      length 8.304624
      axis 0.0 0.0 -90.0 xyz
      dof ry rz rx
   end
   begin
      id 26
      name LeftHand
      direction 1.000000 0.000000 0.000000
      length 0.000000
      axis 0.0 0.0 -90.0 xyz
      dof rx ry rz
   end
   begin
      id 27
      name LeftHand_dum1
      direction 1.000000 0.000000 0.000000
      length 3.937000
      axis 0.0 0.0 -90.0 xyz
   end
   begin
      id 28
      name LeftHand_dum2
      direction 0.000000 0.000000 0.000000
      length 0.000000
      axis 0.0 0.0 -90.0 xyz
   end
   begin
      id 29
      name LeftHandThumb1
      direction 0.000000 0.000000 1.000000
      length 3.937000
      axis 0.0 0.0 -90.0 xyz
      dof rx rz ry
   end
   begin
      id 30
      name Head
      direction 0.000000 1.000000 0.000000
      length 4.527550
      axis 0.0 0.0 0.0 xyz
      dof rx ry rz
   end
:hierarchy
   begin
      root RightUpLeg_dum LeftUpLeg_dum Spine_dum
      RightUpLeg_dum RightUpLeg
      LeftUpLeg_dum LeftUpLeg
      Spine_dum Spine
      RightUpLeg RightLeg
      RightLeg RightFoot
      RightFoot RightToeBase
      LeftUpLeg LeftLeg
      LeftLeg LeftFoot
      LeftFoot LeftToeBase
      Spine Spine_dum1 Spine_dum2 Spine_dum3
      Spine_dum1 RightShoulder
      Spine_dum2 LeftShoulder
      Spine_dum3 Head
      RightShoulder RightArm
      RightArm RightForeArm
      RightForeArm RightHand
      RightHand RightHand_dum1 RightHand_dum2
      RightHand_dum2 RightHandThumb1
      LeftShoulder LeftArm
      LeftArm LeftForeArm
      LeftForeArm LeftHand
      LeftHand LeftHand_dum1 LeftHand_dum2
      LeftHand_dum2 LeftHandThumb1
   end

# File created by Blade
# Date/Time:  Wed Jan 21 19:13:57 2015
# Frame Rate: 120.000 fps
#------------------------------------------------------
:FULLY-SPECIFIED
:DEGREES
1
root -7.183631 32.706186 -5.194002 44.933223 2.458761 0.968407
RightUpLeg -37.150311 -8.239846 5.297627
RightLeg -5.630003 -0.000000 0.000000
RightFoot -8.168081 -0.881752 19.736190
RightToeBase 18.032008 -0.000000 -0.000000
LeftUpLeg -38.942877 2.765737 -3.104375
LeftLeg -1.144873 -0.000000 0.000000
LeftFoot -8.544379 -2.435713 -8.245632
LeftToeBase 9.661605 -0.000000 -0.000000
Spine -48.017529 0.783512 -3.102698
RightShoulder -19.200374 17.449335 -46.424259
RightArm 1.840146 -14.191879 40.710674
RightForeArm 5.494754 -0.000000 -7.501447
RightHand 7.572166 -0.000000 6.969689
RightHandThumb1 -24.326973 -0.000000 -32.862282
LeftShoulder -13.239822 2.767759 41.538149
LeftArm 20.175473 -15.263100 -36.540184
LeftForeArm 16.357563 -0.000000 -4.192400
LeftHand -25.699120 -0.000000 -3.343135
LeftHandThumb1 -26.253704 0.000000 33.147579
Head 8.687898 0.123383 6.582137
2
root -7.178626 32.708488 -5.202822 44.996758 2.536880 0.985084
RightUpLeg -37.210202 -8.345656 5.384219
RightLeg -5.676075 -0.000000 0.000000
RightFoot -8.112785 -0.892255 19.715220
RightToeBase 17.903055 -0.000000 -0.000000
LeftUpLeg -39.082076 2.644771 -3.045729
LeftLeg -1.025762 -0.000000 0.000000
LeftFoot -8.677037 -2.285649 -8.309288
LeftToeBase 9.733964 -0.000000 -0.000000
Spine -47.995838 0.814675 -3.130492
RightShoulder -19.160087 17.431444 -46.347028
RightArm 1.870734 -14.302577 40.848590
RightForeArm 5.536224 -0.000000 -7.438092
RightHand 7.676461 -0.000000 6.995605
RightHandThumb1 -24.326973 -0.000000 -32.862282
LeftShoulder -13.252896 2.845237 41.488359
LeftArm 20.187741 -15.214475 -36.605420
LeftForeArm 16.372125 -0.000000 -4.146142
LeftHand -25.758181 0.000000 -3.244943
LeftHandThumb1 -26.253704 0.000000 33.147579
Head 8.636615 0.197863 6.487110
3
root -7.173689 32.711974 -5.212132 45.068859 2.623568 0.989527
RightUpLeg -37.338143 -8.544172 5.572431
RightLeg -5.631757 -0.000000 0.000000
RightFoot -8.071317 -0.799672 19.663685
RightToeBase 17.822200 -0.000000 -0.000000
LeftUpLeg -39.239732 2.516976 -2.964457
LeftLeg -0.892731 -0.000000 0.000000
LeftFoot -8.863539 -2.119788 -8.496276
LeftToeBase 9.975618 -0.000000 -0.000000
Spine -47.987082 0.861671 -3.147969
RightShoulder -19.128709 17.424195 -46.282946
RightArm 1.921850 -14.343752 41.003935
RightForeArm 5.548948 -0.000000 -7.420631
RightHand 7.756425 -0.000000 6.873666
RightHandThumb1 -24.326973 -0.000000 -32.862282
LeftShoulder -13.245706 2.890764 41.423995
LeftArm 20.172544 -15.124835 -36.647873
LeftForeArm 16.295191 -0.000000 -4.110395
LeftHand -25.734018 0.000000 -3.106706
LeftHandThumb1 -26.253704 0.000000 33.147579
Head 8.592977 0.273157 6.378454
4
root -7.166823 32.714057 -5.221816 45.150211 2.701762 1.011456
RightUpLeg -37.420719 -8.636297 5.649936
RightLeg -5.672614 -0.000000 0.000000
RightFoot -8.033564 -0.853077 19.606740
RightToeBase 17.677534 -0.000000 -0.000000
LeftUpLeg -39.414404 2.399248 -2.927402
LeftLeg -0.742627 -0.000000 0.000000
LeftFoot -9.045500 -1.920719 -8.602145
LeftToeBase 10.305111 -0.000000 -0.000000
Spine -47.980317 0.904813 -3.195441
RightShoulder -19.082802 17.420763 -46.218585
RightArm 1.930844 -14.404275 41.181445
RightForeArm 5.567773 0.000000 -7.384508
RightHand 7.673525 -0.000000 6.657811
RightHandThumb1 -24.326973 -0.000000 -32.862282
LeftShoulder -13.250647 2.928274 41.390480
LeftArm 20.163949 -15.027236 -36.739685
LeftForeArm 16.187118 -0.000000 -4.054239
LeftHand -25.901190 0.000000 -2.876156
LeftHandThumb1 -26.253704 0.000000 33.147579
Head 8.545808 0.381092 6.306760
5
root -7.158940 32.716679 -5.229614 45.222739 2.774855 1.038810
RightUpLeg -37.506465 -8.791460 5.759255
RightLeg -5.701723 -0.000000 0.000000
RightFoot -7.962839 -0.800165 19.550660
RightToeBase 17.567875 -0.000000 -0.000000
LeftUpLeg -39.575514 2.276285 -2.895572
LeftLeg -0.590179 -0.000000 0.000000
LeftFoot -9.199894 -1.682980 -8.552988
LeftToeBase 10.285833 -0.000000 -0.000000
Spine -47.972349 0.966400 -3.258367
RightShoulder -19.054968 17.466748 -46.170268
RightArm 1.891566 -14.469525 41.373122
RightForeArm 5.548242 -0.000000 -7.322766
RightHand 7.949814 -0.000000 6.418444
RightHandThumb1 -24.326973 -0.000000 -32.862282
LeftShoulder -13.236421 2.965660 41.335376
LeftArm 20.135101 -14.951103 -36.832587
LeftForeArm 16.094126 0.000000 -3.956480
LeftHand -25.853946 -0.000000 -2.735579
LeftHandThumb1 -26.253704 0.000000 33.147579
Head 8.522321 0.454176 6.206530
